<svg width="1600" height="234" viewBox="0 0 1600 234" fill="none" xmlns="http://www.w3.org/2000/svg">
<g clip-path="url(#clip0_101_173)">
<path fill-rule="evenodd" clip-rule="evenodd" d="M648.445 233.992C632.957 233.992 618.631 231.282 605.466 225.861C592.495 220.44 581.072 212.89 571.199 203.209C561.325 193.53 553.678 182.301 548.257 169.523C542.836 156.552 540.126 142.613 540.126 127.706C540.126 112.605 542.836 98.6655 548.257 85.8882C553.678 73.1104 561.229 61.9785 570.908 52.4922C580.589 42.812 591.914 35.3584 604.885 30.1313C618.05 24.7104 632.376 22 647.864 22C663.159 22 677.292 24.7104 690.263 30.1313C703.428 35.3584 714.85 42.812 724.53 52.4922C734.403 61.9785 742.051 73.207 747.472 86.1782C752.893 98.9561 755.603 112.895 755.603 127.996C755.603 142.903 752.893 156.842 747.472 169.813C742.051 182.591 734.5 193.82 724.82 203.5C715.141 212.986 703.718 220.44 690.553 225.861C677.582 231.282 663.546 233.992 648.445 233.992ZM647.864 192.465C660.062 192.465 670.709 189.754 679.809 184.333C689.102 178.913 696.265 171.362 701.298 161.683C706.332 151.809 708.849 140.483 708.849 127.706C708.849 118.025 707.396 109.313 704.492 101.57C701.589 93.6318 697.426 86.856 692.005 81.2417C686.584 75.4336 680.099 71.0776 672.549 68.1738C665.191 65.0762 656.964 63.5273 647.864 63.5273C635.668 63.5273 624.923 66.2378 615.63 71.6582C606.531 76.8857 599.465 84.3394 594.431 94.019C589.397 103.505 586.881 114.734 586.881 127.706C586.881 137.386 588.332 146.194 591.236 154.132C594.141 162.07 598.206 168.942 603.434 174.75C608.854 180.365 615.34 184.721 622.89 187.818C630.44 190.916 638.766 192.465 647.864 192.465Z" fill="url(#paint0_linear_101_173)"/>
<path d="M981.632 25.4849H1014.16L1086.6 138.314L1158.78 25.4849H1191.59V230.507H1146V117.143L1101.57 186.367H1071.37L1026.93 116.758V230.507H981.632V25.4849Z" fill="url(#paint1_linear_101_173)"/>
<path d="M1383.95 230.507H1236.72V25.4849H1382.5V64.689H1282.31V106.797H1373.79V144.839H1282.31V191.013H1383.95V230.507Z" fill="url(#paint2_linear_101_173)"/>
<path d="M375.751 25.4849V230.507H421.344V150.066H513.11V110.862H421.344V64.689H517.757V25.4849H375.751Z" fill="url(#paint3_linear_101_173)"/>
<path d="M191.278 25.4849V230.507H338.511V191.013H236.871V144.839H328.347V106.797H236.871V64.689H337.06V25.4849H191.278Z" fill="url(#paint4_linear_101_173)"/>
<path fill-rule="evenodd" clip-rule="evenodd" d="M0 22H85.2383C120.179 22 151 48.0127 151 83C151 112.164 129.585 135.092 102.221 141.917L158.5 229H109.865L54.9326 144H43V229H0V22ZM79.0527 106.067L49.2373 59.9326H85.2383C101.487 59.9326 112.163 71.5586 112.163 83C112.163 94.4414 101.487 106.067 85.2383 106.067H79.0527Z" fill="url(#paint5_linear_101_173)"/>
<path fill-rule="evenodd" clip-rule="evenodd" d="M790 22H875.238C910.179 22 941 48.0127 941 83C941 112.164 919.585 135.092 892.221 141.917L948.5 229H899.865L844.933 144H833V229H790V22ZM869.053 106.067H875.238C891.487 106.067 902.163 94.4414 902.163 83C902.163 71.5586 891.487 59.9326 875.238 59.9326H839.237L869.053 106.067Z" fill="url(#paint6_linear_101_173)"/>
<path fill-rule="evenodd" clip-rule="evenodd" d="M1420 22H1505.24C1540.18 22 1571 48.0127 1571 83C1571 112.164 1549.59 135.092 1522.22 141.917L1578.5 229H1529.87L1474.93 144H1463V229H1420V22ZM1499.05 106.067H1505.24C1521.49 106.067 1532.16 94.4414 1532.16 83C1532.16 71.5586 1521.49 59.9326 1505.24 59.9326H1469.24L1499.05 106.067Z" fill="url(#paint7_linear_101_173)"/>
<path fill-rule="evenodd" clip-rule="evenodd" d="M669.445 211.992C653.957 211.992 639.631 209.282 626.466 203.861C613.495 198.44 602.072 190.89 592.199 181.209C582.325 171.53 574.678 160.301 569.257 147.523C563.836 134.552 561.126 120.613 561.126 105.706C561.126 90.605 563.836 76.6655 569.257 63.8882C574.678 51.1104 582.229 39.9785 591.908 30.4922C601.589 20.812 612.914 13.3584 625.885 8.13135C639.05 2.71045 653.376 0 668.864 0C684.159 0 698.292 2.71045 711.263 8.13135C724.428 13.3584 735.85 20.812 745.53 30.4922C755.403 39.9785 763.051 51.207 768.472 64.1782C773.893 76.9561 776.603 90.895 776.603 105.996C776.603 120.903 773.893 134.842 768.472 147.813C763.051 160.591 755.5 171.82 745.82 181.5C736.141 190.986 724.718 198.44 711.553 203.861C698.582 209.282 684.546 211.992 669.445 211.992ZM668.864 170.465C681.062 170.465 691.709 167.754 700.809 162.333C710.102 156.913 717.265 149.362 722.298 139.683C727.332 129.809 729.849 118.483 729.849 105.706C729.849 96.0254 728.396 87.3135 725.492 79.5698C722.589 71.6318 718.426 64.856 713.005 59.2417C707.584 53.4336 701.099 49.0776 693.549 46.1738C686.191 43.0762 677.964 41.5273 668.864 41.5273C656.668 41.5273 645.923 44.2378 636.63 49.6582C627.531 54.8857 620.465 62.3394 615.431 72.019C610.397 81.5054 607.881 92.7344 607.881 105.706C607.881 115.386 609.332 124.194 612.236 132.132C615.141 140.07 619.206 146.942 624.434 152.75C629.854 158.365 636.34 162.721 643.89 165.818C651.44 168.916 659.766 170.465 668.864 170.465Z" fill="white"/>
<rect x="21" y="37" width="43" height="170" fill="#BDBDBD"/>
<path d="M64 121.638L81.0399 121.638L21 37L64 158.34V121.638Z" fill="#9C9C9C"/>
<rect x="811" y="37" width="43" height="170" fill="#BDBDBD"/>
<path d="M854 121.638L871.04 121.638L811 37L854 158.34V121.638Z" fill="#9C9C9C"/>
<rect x="1441" y="37" width="43" height="170" fill="#BDBDBD"/>
<path d="M1484 121.638L1501.04 121.638L1441 37L1484 158.34V121.638Z" fill="#9C9C9C"/>
<rect x="442" y="42" width="166" height="46" transform="rotate(90 442 42)" fill="#BDBDBD"/>
<rect x="396" y="87" width="137" height="41" fill="white"/>
<rect x="396" y="4" width="145" height="38" fill="white"/>
<path d="M441.583 42L396 67.5005V42L441.583 42Z" fill="#9C9C9C"/>
<rect x="258" y="42" width="137" height="46" transform="rotate(90 258 42)" fill="#BDBDBD"/>
<rect x="212" y="84" width="137" height="38" fill="white"/>
<rect x="212" y="170" width="147" height="38" fill="white"/>
<rect x="212" y="4" width="145" height="38" fill="white"/>
<path d="M257.583 42L212 67.5005V42L257.583 42Z" fill="#9C9C9C"/>
<path d="M257.583 122L212 147.5V122L257.583 122Z" fill="#9C9C9C"/>
<rect x="1304" y="42" width="137" height="46" transform="rotate(90 1304 42)" fill="#BDBDBD"/>
<rect x="1258" y="84" width="137" height="38" fill="white"/>
<rect x="1258" y="170" width="147" height="38" fill="white"/>
<rect x="1258" y="4" width="145" height="38" fill="white"/>
<path d="M1303.58 42L1258 67.5005V42L1303.58 42Z" fill="#9C9C9C"/>
<path d="M1303.58 122L1258 147.5V122L1303.58 122Z" fill="#9C9C9C"/>
<path d="M441.583 128L396 153.5V128L441.583 128Z" fill="#9C9C9C"/>
<path d="M1003 31.5156L1048 95.5156V208.516H1003V31.5156Z" fill="#BDBDBD"/>
<path d="M1212 31.5156L1167 95.5156V208.516H1212V31.5156Z" fill="#BDBDBD"/>
<path d="M1003 32.0156L1048 95.5156L1048 143.516L1003 32.0156Z" fill="#9C9C9C"/>
<path d="M1212 32.0156L1167 95.5156L1167 143.516L1212 32.0156Z" fill="#9C9C9C"/>
<path d="M1002.63 4H1035.16L1107.6 116.829L1179.78 4H1212.59V40.2793L1212.5 31.5151L1167 95.5151L1122.57 164.882H1092.37L1047.93 95.2729V95.4233L1002.63 31.7007V4Z" fill="white"/>
<path fill-rule="evenodd" clip-rule="evenodd" d="M896.239 3.63588e-06C931.179 3.63588e-06 962 26.0126 962 61C962 90.1636 940.585 113.092 913.221 119.916L969.5 207H920.865L811 37.9328V0L896.239 3.63588e-06ZM896.239 84.0671H890.053L860.238 37.9326H896.239C912.488 37.9326 923.163 49.5582 923.163 60.9998C923.163 72.4415 912.488 84.0671 896.239 84.0671Z" fill="white"/>
<path fill-rule="evenodd" clip-rule="evenodd" d="M106.239 3.63588e-06C141.179 3.63588e-06 172 26.0126 172 61C172 90.1636 150.585 113.092 123.221 119.916L179.5 207H130.865L21 37.9328V0L106.239 3.63588e-06ZM106.239 84.0671H100.053L70.2378 37.9326H106.239C122.488 37.9326 133.163 49.5582 133.163 60.9998C133.163 72.4415 122.488 84.0671 106.239 84.0671Z" fill="white"/>
<path fill-rule="evenodd" clip-rule="evenodd" d="M1526.24 3.63588e-06C1561.18 3.63588e-06 1592 26.0126 1592 61C1592 90.1636 1570.59 113.092 1543.22 119.916L1599.5 207H1550.87L1441 37.9328V0L1526.24 3.63588e-06ZM1526.24 84.0671H1520.05L1490.24 37.9326H1526.24C1542.49 37.9326 1553.16 49.5582 1553.16 60.9998C1553.16 72.4415 1542.49 84.0671 1526.24 84.0671Z" fill="white"/>
</g>
<defs>
<linearGradient id="paint0_linear_101_173" x1="198.5" y1="137" x2="198.5" y2="234" gradientUnits="userSpaceOnUse">
<stop stop-color="white" stop-opacity="0"/>
<stop offset="1" stop-color="white" stop-opacity="0.2"/>
</linearGradient>
<linearGradient id="paint1_linear_101_173" x1="198.5" y1="137" x2="198.5" y2="234" gradientUnits="userSpaceOnUse">
<stop stop-color="white" stop-opacity="0"/>
<stop offset="1" stop-color="white" stop-opacity="0.2"/>
</linearGradient>
<linearGradient id="paint2_linear_101_173" x1="198.5" y1="137" x2="198.5" y2="234" gradientUnits="userSpaceOnUse">
<stop stop-color="white" stop-opacity="0"/>
<stop offset="1" stop-color="white" stop-opacity="0.2"/>
</linearGradient>
<linearGradient id="paint3_linear_101_173" x1="198.5" y1="137" x2="198.5" y2="234" gradientUnits="userSpaceOnUse">
<stop stop-color="white" stop-opacity="0"/>
<stop offset="1" stop-color="white" stop-opacity="0.2"/>
</linearGradient>
<linearGradient id="paint4_linear_101_173" x1="198.5" y1="137" x2="198.5" y2="234" gradientUnits="userSpaceOnUse">
<stop stop-color="white" stop-opacity="0"/>
<stop offset="1" stop-color="white" stop-opacity="0.2"/>
</linearGradient>
<linearGradient id="paint5_linear_101_173" x1="198.5" y1="137" x2="198.5" y2="234" gradientUnits="userSpaceOnUse">
<stop stop-color="white" stop-opacity="0"/>
<stop offset="1" stop-color="white" stop-opacity="0.2"/>
</linearGradient>
<linearGradient id="paint6_linear_101_173" x1="198.5" y1="137" x2="198.5" y2="234" gradientUnits="userSpaceOnUse">
<stop stop-color="white" stop-opacity="0"/>
<stop offset="1" stop-color="white" stop-opacity="0.2"/>
</linearGradient>
<linearGradient id="paint7_linear_101_173" x1="198.5" y1="137" x2="198.5" y2="234" gradientUnits="userSpaceOnUse">
<stop stop-color="white" stop-opacity="0"/>
<stop offset="1" stop-color="white" stop-opacity="0.2"/>
</linearGradient>
<clipPath id="clip0_101_173">
<rect width="1600" height="234" fill="white"/>
</clipPath>
</defs>
</svg>
